<svg width="20" height="20" viewBox="0 0 20 20" fill="none" xmlns="http://www.w3.org/2000/svg">
<path d="M4.11738 13.4487H14.989C17.8625 13.4487 20 11.2383 20 8.49533C20 5.67244 17.7224 3.6041 14.7525 3.6041C13.6574 1.41146 11.625 0 9.09329 0C5.79938 0 3.08363 2.60988 2.79455 5.91211C1.20891 6.37374 0 7.7763 0 9.64935C0 11.7443 1.50677 13.4487 4.11738 13.4487ZM4.09985 12.0195C2.30396 12.0195 1.40163 11.0076 1.40163 9.69374C1.40163 8.61963 2.01488 7.66089 3.50416 7.26142C3.98596 7.13715 4.16119 6.90634 4.20496 6.40036C4.40646 3.50646 6.55276 1.42033 9.09329 1.42033C11.0644 1.42033 12.6149 2.51223 13.5611 4.48293C13.7626 4.90902 14.0254 5.05992 14.5423 5.05992C17.1353 5.05992 18.5983 6.64894 18.5983 8.53972C18.5983 10.4749 17.074 12.0195 15.0766 12.0195H4.09985ZM15.6986 15.8633H4.30132C3.99474 15.8633 3.74944 16.103 3.74944 16.4314C3.74944 16.751 3.99474 16.9907 4.30132 16.9907H15.6986C16.0053 16.9907 16.2505 16.751 16.2505 16.4314C16.2505 16.103 16.0053 15.8633 15.6986 15.8633ZM15.6986 18.8815H4.30132C3.99474 18.8815 3.74944 19.1211 3.74944 19.4407C3.74944 19.7603 3.99474 20 4.30132 20H15.6986C16.0053 20 16.2505 19.7603 16.2505 19.4407C16.2505 19.1211 16.0053 18.8815 15.6986 18.8815Z" fill="#808080" fill-opacity="0.78"/>
</svg>
