<svg width="22" height="62" viewBox="0 0 22 62" fill="none" xmlns="http://www.w3.org/2000/svg">
<path d="M20.205 61C20.3623 60.9999 20.516 60.9302 20.6468 60.7997C20.7775 60.6692 20.8794 60.4836 20.9396 60.2666C20.9997 60.0496 21.0154 59.8108 20.9847 59.5804C20.9539 59.35 20.8782 59.1385 20.7669 58.9724L2.97798 32.4025C2.72845 32.0276 2.58838 31.5204 2.58838 30.9917C2.58838 30.4631 2.72845 29.9559 2.97798 29.5809L20.7669 3.01259C20.9118 2.78861 20.9919 2.48862 20.9901 2.17725C20.9883 1.86587 20.9047 1.56803 20.7572 1.34784C20.6098 1.12766 20.4104 1.00275 20.2019 1.00004C19.9934 0.997335 19.7925 1.11704 19.6425 1.33337L1.8557 27.9017C1.30773 28.722 1 29.8334 1 30.9921C1 32.1508 1.30773 33.2622 1.8557 34.0826L19.6446 60.6516C19.7932 60.8738 19.9947 60.9991 20.205 61Z" fill="black" stroke="#D9D9D9" stroke-opacity="0.83" stroke-width="2"/>
</svg>
