<svg width="18" height="18" viewBox="0 0 18 18" fill="none" xmlns="http://www.w3.org/2000/svg">
<path d="M7.57895 5.40095C7.57895 2.26019 4.45263 0.235339 4.32 0.154345C4.16334 0.0537543 3.97857 0 3.78947 0C3.60038 0 3.41561 0.0537543 3.25895 0.154345C3.12632 0.244338 0 2.29618 0 5.40095C0 6.35566 0.399247 7.27126 1.10991 7.94634C1.82058 8.62142 2.78444 9.00068 3.78947 9.00068C4.7945 9.00068 5.75837 8.62142 6.46904 7.94634C7.1797 7.27126 7.57895 6.35566 7.57895 5.40095ZM3.78947 7.20081C3.28696 7.20081 2.80502 7.01119 2.44969 6.67365C2.09436 6.33611 1.89474 5.8783 1.89474 5.40095C1.95966 4.75112 2.16074 4.12019 2.48613 3.54527C2.81152 2.97035 3.25466 2.46305 3.78947 2.0532C4.32629 2.4613 4.77082 2.96818 5.09641 3.54344C5.42199 4.1187 5.62192 4.7505 5.68421 5.40095C5.68421 5.8783 5.48459 6.33611 5.12926 6.67365C4.77392 7.01119 4.29199 7.20081 3.78947 7.20081ZM14.7411 0.154345C14.5844 0.0537543 14.3996 0 14.2105 0C14.0214 0 13.8367 0.0537543 13.68 0.154345C13.5474 0.244338 10.4211 2.29618 10.4211 5.40095C10.4211 6.35566 10.8203 7.27126 11.531 7.94634C12.2416 8.62142 13.2055 9.00068 14.2105 9.00068C15.2156 9.00068 16.1794 8.62142 16.8901 7.94634C17.6008 7.27126 18 6.35566 18 5.40095C18 2.26019 14.8737 0.235339 14.7411 0.154345ZM14.2105 7.20081C13.708 7.20081 13.2261 7.01119 12.8707 6.67365C12.5154 6.33611 12.3158 5.8783 12.3158 5.40095C12.3807 4.75112 12.5818 4.12019 12.9072 3.54527C13.2326 2.97035 13.6757 2.46305 14.2105 2.0532C14.7473 2.4613 15.1919 2.96818 15.5175 3.54344C15.843 4.1187 16.043 4.7505 16.1053 5.40095C16.1053 5.8783 15.9056 6.33611 15.5503 6.67365C15.195 7.01119 14.713 7.20081 14.2105 7.20081ZM10.0042 9.15367C9.84755 9.05308 9.66278 8.99932 9.47368 8.99932C9.28459 8.99932 9.09982 9.05308 8.94316 9.15367C8.81053 9.24366 5.68421 11.2955 5.68421 14.4003C5.68421 15.355 6.08346 16.2706 6.79412 16.9457C7.50479 17.6207 8.46865 18 9.47368 18C10.4787 18 11.4426 17.6207 12.1532 16.9457C12.8639 16.2706 13.2632 15.355 13.2632 14.4003C13.2632 11.2595 10.1368 9.23466 10.0042 9.15367ZM9.47368 16.2001C8.97117 16.2001 8.48924 16.0105 8.1339 15.673C7.77857 15.3354 7.57895 14.8776 7.57895 14.4003C7.64387 13.7504 7.84495 13.1195 8.17034 12.5446C8.49573 11.9697 8.93887 11.4624 9.47368 11.0525C10.0105 11.4606 10.455 11.9675 10.7806 12.5428C11.1062 13.118 11.3061 13.7498 11.3684 14.4003C11.3684 14.8776 11.1688 15.3354 10.8135 15.673C10.4581 16.0105 9.9762 16.2001 9.47368 16.2001Z" fill="#808080" fill-opacity="0.78"/>
</svg>
