<svg width="18" height="18" viewBox="0 0 18 18" fill="none" xmlns="http://www.w3.org/2000/svg">
<path d="M8.99996 18C13.9147 18 18 13.9235 18 9C18 4.0853 13.9235 0 9.00881 0C8.54116 0 8.31174 0.282352 8.31174 0.741194V4.16473C8.31174 4.54414 8.56759 4.85296 8.95584 4.85296C9.34409 4.85296 9.60879 4.54414 9.60879 4.16473V1.52647C13.4911 1.83533 16.4911 5.04707 16.4911 9C16.4911 13.1647 13.1559 16.5 8.99996 16.5C4.83527 16.5 1.49116 13.1647 1.49997 9C1.50878 7.14705 2.17057 5.46179 3.27352 4.16473C3.54702 3.8206 3.56468 3.40589 3.27352 3.09707C2.98232 2.77944 2.4882 2.8059 2.17057 3.20297C0.820554 4.77352 0 6.80296 0 9C0 13.9235 4.07645 18 8.99996 18ZM10.4117 10.3588C11.1088 9.63529 10.9676 8.64706 10.1294 8.0647L5.46171 4.80884C5.02056 4.50002 4.56176 4.95882 4.87058 5.40001L8.12644 10.0676C8.7088 10.9059 9.697 11.0559 10.4117 10.3588Z" fill="#808080" fill-opacity="0.78"/>
</svg>
