<svg width="18" height="20" viewBox="0 0 18 20" fill="none" xmlns="http://www.w3.org/2000/svg">
<path d="M8.84503 2.96586C9.25231 2.96586 9.58876 2.67086 9.58876 2.32146V0.644464C9.58876 0.287321 9.25231 0 8.84503 0C8.44663 0 8.11017 0.287321 8.11017 0.644451V2.32146C8.11017 2.67086 8.44663 2.96586 8.84503 2.96586ZM12.9355 4.46432C13.21 4.71279 13.697 4.72054 13.9891 4.46432L15.335 3.26868C15.6183 3.02021 15.6183 2.60871 15.335 2.36029C15.0516 2.11182 14.5912 2.11182 14.3079 2.36029L12.9355 3.56371C12.6522 3.81214 12.6611 4.21589 12.9355 4.46432ZM4.63057 20C7.18051 20 9.25231 18.1833 9.25231 15.9472C9.25231 14.7671 8.69454 13.7345 7.6409 12.896C7.44614 12.7407 7.40183 12.6553 7.40183 12.4224L7.41071 11.677C7.86226 11.8245 8.34925 11.8944 8.84503 11.8944C11.2799 11.8944 13.2277 10.1864 13.2277 8.05125C13.2277 5.91618 11.2799 4.20036 8.84503 4.20036C8.2961 4.20036 7.76488 4.2935 7.26018 4.47207C6.89717 3.40843 5.93212 2.74846 4.63057 2.74846C2.95718 2.74846 1.83276 3.82768 1.83276 5.45036L1.8416 12.4224C1.8416 12.6553 1.79733 12.7407 1.6114 12.896C0.548932 13.7345 0 14.7671 0 15.9472C0 18.1833 2.06296 20 4.63057 20ZM4.63057 18.8743C2.78897 18.8743 1.29267 17.5544 1.29267 15.9472C1.29267 14.9767 1.81504 14.0994 2.75354 13.5482C3.02805 13.3851 3.13427 13.2376 3.13427 12.9193V5.49693C3.13427 4.51868 3.74519 3.88979 4.63057 3.88979C5.50712 3.88979 6.10916 4.51868 6.10916 5.49693V12.9193C6.10916 13.2376 6.21542 13.3851 6.48989 13.5482C7.42843 14.0994 7.9508 14.9767 7.9508 15.9472C7.9508 17.5544 6.46333 18.8743 4.63057 18.8743ZM8.84503 5.33389C10.5804 5.33389 11.9262 6.52179 11.9262 8.05125C11.9262 9.573 10.5804 10.7609 8.84503 10.7609C8.34037 10.7609 7.84454 10.6444 7.41071 10.4426L7.41955 5.6755C7.85342 5.45811 8.34037 5.33389 8.84503 5.33389ZM4.62174 17.8261C5.80814 17.8261 6.76436 16.9798 6.76436 15.9395C6.76436 15.2096 6.29509 14.6118 5.61338 14.2857C5.33004 14.1538 5.23266 14.0606 5.23266 13.6801V6.14911C5.23266 5.74539 4.96703 5.49693 4.62174 5.49693C4.28528 5.49693 4.01081 5.74539 4.01081 6.14911V13.6801C4.01081 14.0606 3.91343 14.1538 3.63009 14.2857C2.94834 14.6118 2.47907 15.2096 2.47907 15.9395C2.47907 16.9876 3.43529 17.8261 4.62174 17.8261ZM15.3526 8.69568H17.274C17.6723 8.69568 18 8.40064 18 8.05125C18 7.69414 17.6723 7.40686 17.274 7.40686H15.3526C14.9631 7.40686 14.6266 7.69414 14.6266 8.05125C14.6266 8.40064 14.9631 8.69568 15.3526 8.69568ZM14.3079 13.75C14.5912 13.9985 15.0516 13.9907 15.335 13.7422C15.6183 13.4938 15.6183 13.0823 15.335 12.8416L13.9714 11.646C13.6881 11.4053 13.2189 11.3975 12.9355 11.646C12.6522 11.8944 12.6522 12.3059 12.9355 12.5544L14.3079 13.75Z" fill="black" fill-opacity="0.42"/>
</svg>
