<svg width="22" height="62" viewBox="0 0 22 62" fill="none" xmlns="http://www.w3.org/2000/svg">
<path d="M1.79502 61C1.63774 60.9999 1.48398 60.9302 1.35323 60.7997C1.22248 60.6692 1.12059 60.4836 1.06044 60.2666C1.00029 60.0496 0.984602 59.8108 1.01533 59.5804C1.04606 59.35 1.12184 59.1385 1.23309 58.9724L19.022 32.4025C19.2716 32.0276 19.4116 31.5204 19.4116 30.9917C19.4116 30.4631 19.2716 29.9559 19.022 29.5809L1.23309 3.01259C1.08824 2.78861 1.00808 2.48862 1.0099 2.17725C1.01171 1.86587 1.09533 1.56803 1.24276 1.34784C1.3902 1.12766 1.58963 1.00275 1.79813 1.00004C2.00663 0.997335 2.2075 1.11704 2.35748 1.33337L20.1443 27.9017C20.6923 28.722 21 29.8334 21 30.9921C21 32.1508 20.6923 33.2622 20.1443 34.0826L2.35537 60.6516C2.20678 60.8738 2.0053 60.9991 1.79502 61Z" fill="black" stroke="#808080" stroke-opacity="0.78" stroke-width="2"/>
</svg>
