<svg width="25" height="19" viewBox="0 0 25 19" fill="none" xmlns="http://www.w3.org/2000/svg">
<path d="M12.5048 7.43956C12.6804 7.43956 12.8267 7.37572 13.0316 7.20251L16.0749 4.54942C16.2407 4.40354 16.309 4.2577 16.309 4.06622C16.309 3.71066 16.0358 3.45538 15.6457 3.45538C15.4506 3.45538 15.2653 3.53745 15.119 3.6651L13.8997 4.81384L13.1779 5.59789L13.2949 4.22123V0.802286C13.2949 0.355598 12.934 0 12.5048 0C12.0757 0 11.705 0.355598 11.705 0.802286V4.22123L11.8221 5.59789L11.1978 4.90502L9.88098 3.6651C9.74442 3.53745 9.54933 3.45538 9.36402 3.45538C8.97384 3.45538 8.70071 3.71066 8.70071 4.06622C8.70071 4.2577 8.76902 4.40354 8.93482 4.54942L11.9781 7.20251C12.1829 7.37572 12.3195 7.43956 12.5048 7.43956ZM17.5282 9.93763C17.8404 10.2203 18.3574 10.2203 18.7182 9.89207L20.4154 8.30569C20.7763 7.96832 20.7666 7.49426 20.4546 7.2116C20.1619 6.91989 19.6449 6.91075 19.2839 7.24807L17.5867 8.83445C17.2356 9.17182 17.2258 9.66411 17.5282 9.93763ZM6.29143 9.89207C6.65237 10.2203 7.16929 10.2294 7.4717 9.93763C7.77406 9.65497 7.77406 9.17182 7.41317 8.83445L5.71594 7.24807C5.35504 6.91075 4.85759 6.92899 4.54545 7.2116C4.2333 7.48512 4.2333 7.96832 4.5942 8.30569L6.29143 9.89207ZM0.848616 19H24.1514C24.6195 19 25 18.6718 25 18.2615C25 17.8604 24.6195 17.5322 24.1514 17.5322H16.8259C17.46 16.7207 17.8404 15.727 17.8404 14.642C17.8404 11.9069 15.4116 9.64588 12.5048 9.64588C9.58835 9.64588 7.16929 11.9069 7.16929 14.642C7.16929 15.727 7.53996 16.7207 8.18375 17.5322H0.848616C0.390179 17.5322 0 17.8604 0 18.2615C0 18.6718 0.390179 19 0.848616 19ZM8.73973 14.642C8.73973 12.7092 10.437 11.1228 12.5048 11.1228C14.5727 11.1228 16.27 12.7092 16.27 14.642C16.27 15.8455 15.6067 16.9122 14.602 17.5322H10.3979C9.40304 16.9122 8.73973 15.8455 8.73973 14.642ZM2.11665 15.1526H4.51616C5.02339 15.1526 5.40379 14.8153 5.39406 14.4141C5.38429 14.0039 5.02339 13.6665 4.51616 13.6665H2.11665C1.60942 13.6665 1.24853 14.0039 1.24853 14.4141C1.24853 14.8153 1.60942 15.1526 2.11665 15.1526ZM20.4935 15.1526H22.8931C23.3905 15.1526 23.7611 14.8153 23.7611 14.4141C23.7611 14.0039 23.3905 13.6665 22.8931 13.6665H20.4935C19.9863 13.6665 19.6059 14.0039 19.6157 14.4141C19.6253 14.8153 19.9863 15.1526 20.4935 15.1526Z" fill="#808080" fill-opacity="0.78"/>
</svg>
