<svg width="20" height="20" viewBox="0 0 20 20" fill="none" xmlns="http://www.w3.org/2000/svg">
<path d="M10.8041 0.801858C10.8041 0.368663 10.4344 0 10 0C9.56564 0 9.19596 0.368663 9.19596 0.801858V2.73731C9.19596 3.17051 9.56564 3.53917 10 3.53917C10.4344 3.53917 10.8041 3.17051 10.8041 2.73731V0.801858ZM14.5657 4.31334C14.2606 4.62672 14.2606 5.14284 14.5657 5.44702C14.8799 5.76035 15.3882 5.76959 15.7117 5.44702L17.0888 4.07374C17.4031 3.76037 17.4031 3.24424 17.0888 2.93086C16.7838 2.62673 16.2662 2.62673 15.952 2.93086L14.5657 4.31334ZM4.28837 5.44702C4.59334 5.76035 5.11091 5.76035 5.42515 5.44702C5.73017 5.15209 5.73017 4.61751 5.43442 4.31334L4.05733 2.93086C3.76158 2.63593 3.23475 2.62673 2.92051 2.93086C2.61553 3.235 2.61553 3.76037 2.91128 4.06454L4.28837 5.44702ZM10 5.29951C7.42146 5.29951 5.2865 7.42856 5.2865 10C5.2865 12.5714 7.42146 14.7097 10 14.7097C12.5694 14.7097 14.7043 12.5714 14.7043 10C14.7043 7.42856 12.5694 5.29951 10 5.29951ZM10 6.70967C11.8023 6.70967 13.2995 8.20277 13.2995 10C13.2995 11.7972 11.8023 13.2995 10 13.2995C8.18855 13.2995 6.69131 11.7972 6.69131 10C6.69131 8.20277 8.18855 6.70967 10 6.70967ZM19.196 10.8018C19.6304 10.8018 20 10.4332 20 10C20 9.56681 19.6304 9.19814 19.196 9.19814H17.2644C16.83 9.19814 16.4603 9.56681 16.4603 10C16.4603 10.4332 16.83 10.8018 17.2644 10.8018H19.196ZM0.804084 9.19814C0.369687 9.19814 0 9.56681 0 10C0 10.4332 0.369687 10.8018 0.804084 10.8018H2.73568C3.17008 10.8018 3.53977 10.4332 3.53977 10C3.53977 9.56681 3.17008 9.19814 2.73568 9.19814H0.804084ZM15.7024 14.5622C15.3882 14.2581 14.8799 14.2581 14.5657 14.5622C14.2606 14.8664 14.2606 15.3825 14.5657 15.6959L15.952 17.0783C16.2662 17.3825 16.7838 17.3733 17.0888 17.0691C17.4031 16.765 17.4031 16.2488 17.0888 15.9355L15.7024 14.5622ZM2.91128 15.9263C2.59704 16.2304 2.59704 16.7558 2.90205 17.0599C3.20703 17.3641 3.73382 17.3733 4.04806 17.0691L5.42515 15.6959C5.73017 15.3917 5.73017 14.8756 5.43442 14.5622C5.1294 14.2581 4.60261 14.2581 4.28837 14.5622L2.91128 15.9263ZM10.8041 17.2626C10.8041 16.8295 10.4344 16.4608 10 16.4608C9.56564 16.4608 9.19596 16.8295 9.19596 17.2626V19.1981C9.19596 19.6313 9.56564 20 10 20C10.4344 20 10.8041 19.6313 10.8041 19.1981V17.2626Z" fill="#808080" fill-opacity="0.78"/>
</svg>
