<svg width="20" height="20" viewBox="0 0 20 20" fill="none" xmlns="http://www.w3.org/2000/svg">
<path d="M0.885439 6.7682C2.28835 6.24932 3.73997 5.98985 5.12338 5.98985C6.91598 5.98985 8.23122 6.31694 9.92639 6.31694C11.68 6.31694 12.7711 4.94078 12.7711 3.14718C12.7711 1.30849 11.5534 0 10.053 0C8.9424 0 7.96814 0.800874 7.55899 1.87252C7.40311 2.24476 7.46156 2.68471 7.80253 2.88777C8.11429 3.0682 8.49426 2.95544 8.69886 2.49296C8.91318 1.91767 9.43926 1.46641 10.053 1.46641C10.8617 1.46641 11.4949 2.12068 11.4949 3.14718C11.4949 4.17369 10.8812 4.85053 9.92639 4.85053C8.30916 4.85053 6.97443 4.51209 5.12338 4.51209C3.53537 4.51209 1.92787 4.83922 0.495743 5.36942C0.0865519 5.50481 -0.0693265 5.91087 0.0281079 6.30568C0.125542 6.68922 0.447026 6.91481 0.885439 6.7682ZM16.1225 12.0474C18.3926 12.0474 20 10.3779 20 8.04286C20 5.7417 18.4704 4.07218 16.5707 4.07218C14.8073 4.07218 13.5019 5.49349 13.268 7.36602C13.2096 7.82854 13.4337 8.20078 13.7844 8.25718C14.1448 8.31359 14.4566 8.05417 14.5345 7.52398C14.7001 6.35082 15.5477 5.53864 16.5707 5.53864C17.7593 5.53864 18.7238 6.56514 18.7238 8.04286C18.7238 9.54315 17.7009 10.581 16.1225 10.581C13.1511 10.581 9.94588 8.61815 6.04892 8.61815C4.04196 8.61815 2.21041 8.99044 0.495743 9.70107C0.0963203 9.85903 -0.0693265 10.2538 0.0281079 10.6486C0.125542 11.0321 0.456753 11.269 0.885439 11.0999C2.47345 10.4004 4.12966 10.0959 6.04892 10.0959C9.93611 10.0959 12.8394 12.0474 16.1225 12.0474ZM9.93612 20C11.4365 20 12.5958 18.7141 12.5958 16.8754C12.5958 14.2132 10.2479 12.7242 5.92227 12.7242C4.11017 12.7242 2.15196 13.1303 0.495743 13.7958C0.0963203 13.9538 -0.0693265 14.3486 0.0281079 14.7434C0.125542 15.1269 0.456753 15.3638 0.885439 15.1946C2.43446 14.5516 4.16861 14.2019 5.92227 14.2019C9.45875 14.2019 11.3293 15.2284 11.3293 16.8754C11.3293 17.9132 10.7058 18.5336 9.93612 18.5336C9.16649 18.5336 8.69886 17.9357 8.56243 16.9882C8.50399 16.5708 8.24095 16.2324 7.82203 16.2662C7.38362 16.3 7.20824 16.7287 7.26673 17.1799C7.44206 18.7479 8.44554 20 9.93612 20Z" fill="#808080" fill-opacity="0.78"/>
</svg>
